<svg xmlns="http://www.w3.org/2000/svg" viewBox="0 0 290 220" role="img" aria-labelledby="mark-title mark-description">
  <title id="mark-title">Sri Sai Anu Motor Driving School</title>
  <desc id="mark-description">A lime badge with a simplified SSA driving monogram and car.</desc>
  <rect x="10" y="10" width="270" height="200" rx="18" fill="#E4FF33"/>
  <g fill="none" stroke="#070707" stroke-width="18" stroke-linecap="round" stroke-linejoin="round">
    <path d="M130 55H82c-22 0-35 11-35 28s13 26 34 26h25c20 0 33 10 33 27 0 21-17 34-44 34H48"/>
    <path d="M142 172l47-112c4-10 10-15 18-15s14 5 18 15l46 112"/>
  </g>
  <path d="M103 142l12-27c3-7 8-11 16-11h48c7 0 13 3 17 9l18 29h13c7 0 12 5 12 12v10H91v-10c0-7 5-12 12-12Z" fill="#070707"/>
  <path d="M128 115h47c5 0 9 2 12 7l12 20h-86l8-19c2-5 4-8 7-8Z" fill="#E4FF33"/>
  <circle cx="122" cy="164" r="13" fill="#070707"/>
  <circle cx="122" cy="164" r="5" fill="#E4FF33"/>
  <circle cx="207" cy="164" r="13" fill="#070707"/>
  <circle cx="207" cy="164" r="5" fill="#E4FF33"/>
</svg>
